<svg width="56" height="41" viewBox="0 0 56 41" fill="none" xmlns="http://www.w3.org/2000/svg">
<path d="M14.7505 24.9644H21.2323L24.4909 29.1322L27.6965 32.8447L33.738 40.3749H26.6221L22.4653 35.2965L20.334 32.2843L14.7505 24.9644ZM34.284 19.5007C34.284 23.4117 33.5384 26.7389 32.0471 29.4825C30.5676 32.226 28.5479 34.3217 25.988 35.7694C23.4399 37.2052 20.5748 37.9233 17.3926 37.9233C14.1869 37.9233 11.31 37.1995 8.76188 35.7518C6.21377 34.3041 4.19996 32.2085 2.72042 29.4649C1.24087 26.7214 0.501099 23.4 0.501099 19.5007C0.501099 15.5897 1.24087 12.2624 2.72042 9.51892C4.19996 6.77538 6.21377 4.68564 8.76188 3.24965C11.31 1.80203 14.1869 1.07818 17.3926 1.07818C20.5748 1.07818 23.4399 1.80203 25.988 3.24965C28.5479 4.68564 30.5676 6.77538 32.0471 9.51892C33.5384 12.2624 34.284 15.5897 34.284 19.5007ZM26.5517 19.5007C26.5517 16.9673 26.1701 14.8309 25.4068 13.0913C24.6553 11.3518 23.5926 10.0326 22.2187 9.13366C20.8448 8.23471 19.2362 7.78525 17.3926 7.78525C15.549 7.78525 13.9403 8.23471 12.5664 9.13366C11.1926 10.0326 10.124 11.3518 9.36075 13.0913C8.60922 14.8309 8.2335 16.9673 8.2335 19.5007C8.2335 22.0341 8.60922 24.1705 9.36075 25.91C10.124 27.6495 11.1926 28.9688 12.5664 29.8677C13.9403 30.7666 15.549 31.2161 17.3926 31.2161C19.2362 31.2161 20.8448 30.7666 22.2187 29.8677C23.5926 28.9688 24.6553 27.6495 25.4068 25.91C26.1701 24.1705 26.5517 22.0341 26.5517 19.5007Z" fill="#606266"/>
<path d="M55.9917 13.6842H48.2767C48.1358 12.6919 47.8484 11.8105 47.414 11.0399C46.9791 10.2577 46.4215 9.59228 45.7404 9.04358C45.0593 8.49488 44.2728 8.07461 43.3804 7.78274C42.4996 7.49086 41.5426 7.34495 40.5092 7.34495C38.6422 7.34495 37.0159 7.80607 35.6302 8.72837C34.2446 9.63899 33.1702 10.9699 32.407 12.7211C31.6437 14.4606 31.2621 16.5737 31.2621 19.0604C31.2621 21.6171 31.6437 23.7652 32.407 25.5048C33.182 27.2442 34.2623 28.5577 35.6479 29.4449C37.0335 30.3322 38.6363 30.7758 40.4564 30.7758C41.478 30.7758 42.4234 30.6416 43.2923 30.373C44.1727 30.1045 44.9539 29.7134 45.6346 29.1997C46.3157 28.6744 46.8794 28.0381 47.3258 27.291C47.7838 26.5438 48.1008 25.6915 48.2767 24.7342L55.9917 24.7692C55.7919 26.4154 55.2928 28.0031 54.4944 29.5325C53.7079 31.0502 52.645 32.4103 51.3062 33.6128C49.9794 34.8034 48.3945 35.7491 46.5508 36.4496C44.7187 37.1383 42.6462 37.483 40.3331 37.483C37.1157 37.483 34.2387 36.7592 31.7024 35.3115C29.1778 33.8638 27.1816 31.7682 25.7137 29.0246C24.2577 26.2811 23.5297 22.9597 23.5297 19.0604C23.5297 15.1494 24.2695 11.8221 25.749 9.07862C27.2285 6.33508 29.2365 4.24534 31.7729 2.80935C34.3092 1.36173 37.1626 0.637882 40.3331 0.637882C42.4234 0.637882 44.3609 0.929756 46.1456 1.5135C47.9423 2.09721 49.5335 2.94945 50.9187 4.07023C52.3044 5.1793 53.4319 6.53938 54.3008 8.15048C55.1812 9.76157 55.745 11.6062 55.9917 13.6842Z" fill="#409eff"/>
<path d="M43.1714 12.3358H36.9714C36.4822 12.3358 36.0857 12.7301 36.0857 13.2164V14.5373C36.0857 15.0237 36.4822 15.4179 36.9714 15.4179H43.1714C43.6606 15.4179 44.0571 15.0237 44.0571 14.5373V13.2164C44.0571 12.7301 43.6606 12.3358 43.1714 12.3358Z" fill="#606266"/>
<path d="M43.1714 22.0224H36.9714C36.4822 22.0224 36.0857 22.4166 36.0857 22.903V24.2239C36.0857 24.7102 36.4822 25.1045 36.9714 25.1045H43.1714C43.6606 25.1045 44.0571 24.7102 44.0571 24.2239V22.903C44.0571 22.4166 43.6606 22.0224 43.1714 22.0224Z" fill="#606266"/>
<path d="M48.0429 17.1791H41.8429C41.3537 17.1791 40.9572 17.5734 40.9572 18.0597V19.3806C40.9572 19.8669 41.3537 20.2612 41.8429 20.2612H48.0429C48.532 20.2612 48.9286 19.8669 48.9286 19.3806V18.0597C48.9286 17.5734 48.532 17.1791 48.0429 17.1791Z" fill="#409eff"/>
</svg>
